<svg width="33" height="32" viewBox="0 0 33 32" fill="none" xmlns="http://www.w3.org/2000/svg">
<path d="M24.1647 21.0275C23.8774 21.6563 23.5374 22.2352 23.1434 22.7674C22.6064 23.4929 22.1667 23.9952 21.8279 24.274C21.3026 24.7318 20.7398 24.9662 20.1371 24.9796C19.7045 24.9796 19.1827 24.8629 18.5753 24.6262C17.966 24.3907 17.406 24.274 16.894 24.274C16.357 24.274 15.781 24.3907 15.165 24.6262C14.548 24.8629 14.051 24.9862 13.671 24.9985C13.0931 25.0218 12.517 24.7807 11.942 24.274C11.575 23.9707 11.116 23.4507 10.5661 22.7141C9.97607 21.9274 9.491 21.0152 9.11099 19.9753C8.70402 18.852 8.5 17.7642 8.5 16.7112C8.5 15.5049 8.77507 14.4644 9.32603 13.5926C9.75904 12.8923 10.3351 12.3398 11.0561 11.9343C11.777 11.5288 12.556 11.3221 13.395 11.3089C13.854 11.3089 14.456 11.4434 15.204 11.7079C15.95 11.9732 16.4289 12.1077 16.6389 12.1077C16.7959 12.1077 17.328 11.9504 18.23 11.6367C19.083 11.3459 19.8029 11.2254 20.3927 11.2729C21.9908 11.3951 23.1915 11.9921 23.99 13.0676C22.5607 13.8882 21.8537 15.0376 21.8677 16.5122C21.8806 17.6607 22.3203 18.6164 23.1845 19.3753C23.5761 19.7275 24.0134 19.9997 24.5 20.193C24.3945 20.483 24.2831 20.7608 24.1647 21.0275ZM20.4994 7.3601C20.4994 8.26031 20.1524 9.10083 19.4606 9.8788C18.6258 10.8037 17.616 11.3381 16.521 11.2538C16.507 11.1458 16.4989 11.0321 16.4989 10.9127C16.4989 10.0485 16.896 9.1236 17.601 8.3674C17.953 7.98453 18.4006 7.66617 18.9435 7.41221C19.4852 7.16204 19.9976 7.02369 20.4795 7C20.4936 7.12034 20.4994 7.2407 20.4994 7.3601Z" fill="#141414"/>
</svg>
