<svg width="32" height="32" viewBox="0 0 32 32" fill="none" xmlns="http://www.w3.org/2000/svg">
<path fill-rule="evenodd" clip-rule="evenodd" d="M23.8285 16.1832C23.8285 15.616 23.7775 15.0705 23.683 14.5469H16.1484V17.6414H20.4539C20.2684 18.6414 19.7048 19.4887 18.8575 20.056V22.0633H21.443C22.9557 20.6705 23.8285 18.6196 23.8285 16.1832Z" fill="#4285F4"/>
<path fill-rule="evenodd" clip-rule="evenodd" d="M16.1491 23.9995C18.3091 23.9995 20.12 23.2832 21.4437 22.0614L18.8582 20.0541C18.1418 20.5341 17.2255 20.8177 16.1491 20.8177C14.0655 20.8177 12.3018 19.4104 11.6727 17.5195H9V19.5923C10.3164 22.2068 13.0218 23.9995 16.1491 23.9995Z" fill="#34A853"/>
<path fill-rule="evenodd" clip-rule="evenodd" d="M11.6721 17.519C11.5121 17.039 11.4212 16.5263 11.4212 15.999C11.4212 15.4717 11.5121 14.959 11.6721 14.479V12.4062H8.99935C8.45753 13.4863 8.14844 14.7081 8.14844 15.999C8.14844 17.2899 8.45753 18.5117 8.99935 19.5917L11.6721 17.519Z" fill="#FBBC05"/>
<path fill-rule="evenodd" clip-rule="evenodd" d="M16.1491 11.1818C17.3237 11.1818 18.3782 11.5855 19.2073 12.3782L21.5018 10.0836C20.1164 8.79273 18.3055 8 16.1491 8C13.0218 8 10.3164 9.79273 9 12.4073L11.6727 14.48C12.3018 12.5891 14.0655 11.1818 16.1491 11.1818Z" fill="#EA4335"/>
</svg>
