<svg width="70" height="70" viewBox="0 0 70 70" fill="none" xmlns="http://www.w3.org/2000/svg">
<rect x="0.5" y="0.5" width="69" height="69" rx="15.5" fill="#141414" stroke="#141414"/>
<path fill-rule="evenodd" clip-rule="evenodd" d="M27.9473 17.9894C29.772 17.9054 30.3537 17.8867 35.0017 17.8867C39.6497 17.8867 40.2315 17.9069 42.0546 17.9894C43.8777 18.0718 45.1222 18.3627 46.2111 18.7843C47.3513 19.2152 48.3857 19.8887 49.2413 20.7598C50.1124 21.6138 50.7844 22.6467 51.2137 23.7885C51.6368 24.8774 51.9262 26.1218 52.0102 27.9418C52.0942 29.7696 52.1128 30.3514 52.1128 34.9978C52.1128 39.6458 52.0926 40.2276 52.0102 42.0523C51.9277 43.8723 51.6368 45.1167 51.2137 46.2056C50.7844 47.3475 50.1113 48.3821 49.2413 49.2374C48.3857 50.1085 47.3513 50.7805 46.2111 51.2098C45.1222 51.6329 43.8777 51.9223 42.0577 52.0063C40.2315 52.0903 39.6497 52.1089 35.0017 52.1089C30.3537 52.1089 29.772 52.0887 27.9473 52.0063C26.1273 51.9238 24.8828 51.6329 23.794 51.2098C22.6521 50.7804 21.6175 50.1073 20.7622 49.2374C19.8917 48.3829 19.218 47.3488 18.7882 46.2072C18.3666 45.1183 18.0773 43.8738 17.9933 42.0538C17.9093 40.226 17.8906 39.6443 17.8906 34.9978C17.8906 30.3498 17.9108 29.7681 17.9933 27.9449C18.0757 26.1218 18.3666 24.8774 18.7882 23.7885C19.2186 22.6468 19.8928 21.6128 20.7637 20.7583C21.6178 19.8879 22.6514 19.2143 23.7924 18.7843C24.8813 18.3627 26.1257 18.0734 27.9457 17.9894H27.9473ZM41.9162 21.0694C40.1117 20.9869 39.5704 20.9698 35.0017 20.9698C30.4331 20.9698 29.8917 20.9869 28.0873 21.0694C26.4182 21.1456 25.5128 21.4241 24.9093 21.6589C24.1113 21.9701 23.5404 22.3387 22.9415 22.9376C22.3738 23.4899 21.9369 24.1623 21.6628 24.9054C21.428 25.5089 21.1495 26.4143 21.0733 28.0834C20.9908 29.8878 20.9737 30.4292 20.9737 34.9978C20.9737 39.5665 20.9908 40.1078 21.0733 41.9123C21.1495 43.5814 21.428 44.4867 21.6628 45.0903C21.9366 45.8323 22.3737 46.5058 22.9415 47.0581C23.4937 47.6258 24.1673 48.0629 24.9093 48.3367C25.5128 48.5716 26.4182 48.8501 28.0873 48.9263C29.8917 49.0087 30.4315 49.0258 35.0017 49.0258C39.572 49.0258 40.1117 49.0087 41.9162 48.9263C43.5853 48.8501 44.4906 48.5716 45.0942 48.3367C45.8922 48.0256 46.4631 47.6569 47.062 47.0581C47.6297 46.5058 48.0668 45.8323 48.3406 45.0903C48.5755 44.4867 48.854 43.5814 48.9302 41.9123C49.0126 40.1078 49.0297 39.5665 49.0297 34.9978C49.0297 30.4292 49.0126 29.8878 48.9302 28.0834C48.854 26.4143 48.5755 25.5089 48.3406 24.9054C48.0295 24.1074 47.6608 23.5365 47.062 22.9376C46.5096 22.3699 45.8373 21.933 45.0942 21.6589C44.4906 21.4241 43.5853 21.1456 41.9162 21.0694ZM32.8162 40.2727C34.0368 40.7808 35.3959 40.8494 36.6614 40.4667C37.9269 40.0841 39.0203 39.2739 39.7549 38.1747C40.4895 37.0754 40.8196 35.7552 40.6889 34.4395C40.5582 33.1239 39.9749 31.8945 39.0384 30.9612C38.4414 30.3646 37.7196 29.9078 36.9249 29.6236C36.1302 29.3395 35.2824 29.2351 34.4425 29.3179C33.6026 29.4007 32.7915 29.6688 32.0677 30.1027C31.3438 30.5366 30.7251 31.1257 30.2562 31.8274C29.7873 32.5291 29.4798 33.3261 29.3559 34.1609C29.2319 34.9957 29.2946 35.8476 29.5395 36.6553C29.7843 37.463 30.2051 38.2063 30.7717 38.8318C31.3383 39.4573 32.0366 39.9494 32.8162 40.2727ZM28.7826 28.7787C29.5993 27.962 30.5689 27.3142 31.636 26.8722C32.7031 26.4302 33.8467 26.2027 35.0017 26.2027C36.1567 26.2027 37.3004 26.4302 38.3675 26.8722C39.4346 27.3142 40.4041 27.962 41.2208 28.7787C42.0375 29.5954 42.6854 30.565 43.1274 31.6321C43.5694 32.6991 43.7969 33.8428 43.7969 34.9978C43.7969 36.1528 43.5694 37.2965 43.1274 38.3636C42.6854 39.4307 42.0375 40.4002 41.2208 41.2169C39.5714 42.8664 37.3344 43.793 35.0017 43.793C32.6691 43.793 30.432 42.8664 28.7826 41.2169C27.1332 39.5675 26.2066 37.3304 26.2066 34.9978C26.2066 32.6652 27.1332 30.4281 28.7826 28.7787ZM45.7475 27.5125C45.9499 27.3216 46.1119 27.092 46.224 26.8373C46.336 26.5827 46.3959 26.3081 46.3999 26.0299C46.404 25.7517 46.3522 25.4756 46.2476 25.2178C46.143 24.9599 45.9877 24.7257 45.791 24.529C45.5943 24.3323 45.3601 24.177 45.1023 24.0724C44.8444 23.9678 44.5683 23.916 44.2901 23.9201C44.0119 23.9241 43.7373 23.984 43.4827 24.096C43.228 24.2081 42.9984 24.3701 42.8075 24.5725C42.4362 24.9661 42.2329 25.4889 42.2408 26.0299C42.2487 26.571 42.4671 27.0876 42.8498 27.4703C43.2324 27.8529 43.749 28.0713 44.2901 28.0792C44.8311 28.0871 45.3539 27.8838 45.7475 27.5125Z" fill="#FAE600"/>
</svg>
