<svg width="22" height="20" viewBox="0 0 22 20" fill="none" xmlns="http://www.w3.org/2000/svg">
<path d="M19.1999 0H8.5332V3.33333H11.1999V4.66667H2.5332C1.39987 4.66667 0.533203 5.53333 0.533203 6.66667V14C0.533203 15.1333 1.39987 16 2.5332 16H3.19987V19.4L7.39987 16H11.8665V11.3333H19.1999C20.3332 11.3333 21.1999 10.4667 21.1999 9.33333V2C21.1999 0.866667 20.3332 0 19.1999 0ZM7.7332 13.2667L7.39987 12.2H5.3332L4.9332 13.2667H3.3332L5.5332 7.33333H7.1332L9.3332 13.2667H7.7332ZM17.8665 8V9.33333C16.9999 9.33333 16.0665 9.06667 15.2665 8.66667C14.4665 9.06667 13.5332 9.26667 12.5999 9.33333L12.5332 8C12.9999 8 13.4665 7.93333 13.9332 7.8C13.3332 7.2 12.9332 6.46667 12.7332 5.66667H14.1332C14.3332 6.26667 14.7332 6.73333 15.1999 7.13333C15.9332 6.53333 16.3999 5.66667 16.4665 4.66667H12.4665V3.33333H14.4665V2H15.7999V3.33333H17.9999L18.0665 4C18.1332 5.4 17.5999 6.8 16.5999 7.8C17.0665 7.93333 17.4665 8 17.8665 8Z" fill="white"/>
</svg>
