<svg width="78" height="78" viewBox="0 0 78 78" fill="none" xmlns="http://www.w3.org/2000/svg">
<g filter="url(#filter0_d_440_27439)">
<rect x="4.5" y="0.5" width="69" height="69" rx="15.5" fill="#141414" stroke="#141414"/>
<path fill-rule="evenodd" clip-rule="evenodd" d="M22 20.8405C22 20.0872 22.2993 19.3647 22.832 18.832C23.3647 18.2993 24.0872 18 24.8405 18H53.1564C53.5297 17.9994 53.8995 18.0724 54.2446 18.2149C54.5897 18.3574 54.9032 18.5666 55.1674 18.8304C55.4315 19.0943 55.641 19.4076 55.7839 19.7526C55.9268 20.0975 56.0002 20.4672 56 20.8405V49.1564C56.0004 49.5298 55.9272 49.8996 55.7845 50.2447C55.6418 50.5898 55.4325 50.9034 55.1686 51.1675C54.9046 51.4316 54.5911 51.6411 54.2461 51.7839C53.9011 51.9268 53.5313 52.0002 53.1579 52H24.8405C24.4674 52 24.0979 51.9265 23.7532 51.7836C23.4084 51.6408 23.0952 51.4314 22.8314 51.1675C22.5676 50.9035 22.3584 50.5902 22.2158 50.2454C22.0731 49.9006 21.9998 49.5311 22 49.1579V20.8405ZM35.4578 30.9633H40.0617V33.2753C40.7263 31.9462 42.4263 30.75 44.9809 30.75C49.8785 30.75 51.0391 33.3974 51.0391 38.2547V47.2524H46.0828V39.3613C46.0828 36.5949 45.4183 35.034 43.7306 35.034C41.3893 35.034 40.4156 36.717 40.4156 39.3613V47.2524H35.4578V30.9633ZM26.9578 47.0406H31.9156V30.75H26.9578V47.0391V47.0406ZM32.625 25.4367C32.6343 25.8612 32.5588 26.2833 32.4028 26.6782C32.2468 27.0731 32.0135 27.4329 31.7166 27.7364C31.4197 28.0399 31.0652 28.2811 30.6738 28.4457C30.2824 28.6104 29.8621 28.6952 29.4375 28.6952C29.0129 28.6952 28.5926 28.6104 28.2012 28.4457C27.8098 28.2811 27.4553 28.0399 27.1584 27.7364C26.8615 27.4329 26.6282 27.0731 26.4722 26.6782C26.3162 26.2833 26.2407 25.8612 26.25 25.4367C26.2683 24.6035 26.6122 23.8106 27.208 23.2278C27.8038 22.645 28.6041 22.3186 29.4375 22.3186C30.2709 22.3186 31.0712 22.645 31.667 23.2278C32.2628 23.8106 32.6067 24.6035 32.625 25.4367Z" fill="#FAE600"/>
</g>
<defs>
<filter id="filter0_d_440_27439" x="0" y="0" width="78" height="78" filterUnits="userSpaceOnUse" color-interpolation-filters="sRGB">
<feFlood flood-opacity="0" result="BackgroundImageFix"/>
<feColorMatrix in="SourceAlpha" type="matrix" values="0 0 0 0 0 0 0 0 0 0 0 0 0 0 0 0 0 0 127 0" result="hardAlpha"/>
<feOffset dy="4"/>
<feGaussianBlur stdDeviation="2"/>
<feComposite in2="hardAlpha" operator="out"/>
<feColorMatrix type="matrix" values="0 0 0 0 0 0 0 0 0 0 0 0 0 0 0 0 0 0 0.2 0"/>
<feBlend mode="normal" in2="BackgroundImageFix" result="effect1_dropShadow_440_27439"/>
<feBlend mode="normal" in="SourceGraphic" in2="effect1_dropShadow_440_27439" result="shape"/>
</filter>
</defs>
</svg>
