<svg width="70" height="70" viewBox="0 0 70 70" fill="none" xmlns="http://www.w3.org/2000/svg">
<rect x="0.5" y="0.5" width="69" height="69" rx="15.5" fill="#141414" stroke="#141414"/>
<path d="M52.1094 24.4136C50.8223 24.9904 49.4396 25.3802 47.986 25.5564C49.4858 24.6487 50.6079 23.2201 51.1429 21.5371C49.7338 22.3837 48.1916 22.9795 46.5833 23.2988C45.5018 22.1309 44.0693 21.3568 42.5082 21.0966C40.9472 20.8365 39.3448 21.1049 37.95 21.8602C36.5553 22.6155 35.446 23.8155 34.7946 25.2737C34.1431 26.7319 33.9859 28.3669 34.3473 29.9248C31.4921 29.7798 28.6989 29.0292 26.149 27.7217C23.5992 26.4142 21.3496 24.5791 19.5464 22.3354C18.9298 23.4111 18.5753 24.6583 18.5753 25.9867C18.5746 27.1824 18.8657 28.3599 19.4229 29.4146C19.98 30.4693 20.786 31.3686 21.7692 32.0327C20.6289 31.996 19.5138 31.6843 18.5167 31.1237V31.2173C18.5166 32.8944 19.0902 34.5199 20.1401 35.818C21.1901 37.1161 22.6517 38.0068 24.2771 38.339C23.2193 38.6286 22.1103 38.6712 21.0339 38.4637C21.4925 39.9068 22.3857 41.1687 23.5886 42.0728C24.7915 42.9769 26.2438 43.4779 27.7422 43.5057C25.1986 45.5253 22.0572 46.6208 18.8235 46.616C18.2506 46.6162 17.6783 46.5823 17.1094 46.5147C20.3918 48.6493 24.2129 49.7822 28.1153 49.7778C41.3254 49.7778 48.5471 38.7116 48.5471 29.1141C48.5471 28.8023 48.5394 28.4874 48.5255 28.1756C49.9302 27.1481 51.1428 25.8758 52.1063 24.4182L52.1094 24.4136Z" fill="#FAE600"/>
</svg>
