<svg width="78" height="78" viewBox="0 0 78 78" fill="none" xmlns="http://www.w3.org/2000/svg">
<g filter="url(#filter0_d_440_27430)">
<rect x="4.5" y="0.5" width="69" height="69" rx="15.5" fill="#141414" stroke="#141414"/>
<path d="M56.1094 24.4136C54.8223 24.9904 53.4396 25.3802 51.986 25.5564C53.4858 24.6487 54.6079 23.2201 55.1429 21.5371C53.7338 22.3837 52.1916 22.9795 50.5833 23.2988C49.5018 22.1309 48.0693 21.3568 46.5082 21.0966C44.9472 20.8365 43.3448 21.1049 41.95 21.8602C40.5553 22.6155 39.446 23.8155 38.7946 25.2737C38.1431 26.7319 37.9859 28.3669 38.3473 29.9248C35.4921 29.7798 32.6989 29.0292 30.149 27.7217C27.5992 26.4142 25.3496 24.5791 23.5464 22.3354C22.9298 23.4111 22.5753 24.6583 22.5753 25.9867C22.5746 27.1824 22.8657 28.3599 23.4229 29.4146C23.98 30.4693 24.786 31.3686 25.7692 32.0327C24.6289 31.996 23.5138 31.6843 22.5167 31.1237V31.2173C22.5166 32.8944 23.0902 34.5199 24.1401 35.818C25.1901 37.1161 26.6517 38.0068 28.2771 38.339C27.2193 38.6286 26.1103 38.6712 25.0339 38.4637C25.4925 39.9068 26.3857 41.1687 27.5886 42.0728C28.7915 42.9769 30.2438 43.4779 31.7422 43.5057C29.1986 45.5253 26.0572 46.6208 22.8235 46.616C22.2506 46.6162 21.6783 46.5823 21.1094 46.5147C24.3918 48.6493 28.2129 49.7822 32.1153 49.7778C45.3254 49.7778 52.5471 38.7116 52.5471 29.1141C52.5471 28.8023 52.5394 28.4874 52.5255 28.1756C53.9302 27.1481 55.1428 25.8758 56.1063 24.4182L56.1094 24.4136Z" fill="#FAE600"/>
</g>
<defs>
<filter id="filter0_d_440_27430" x="0" y="0" width="78" height="78" filterUnits="userSpaceOnUse" color-interpolation-filters="sRGB">
<feFlood flood-opacity="0" result="BackgroundImageFix"/>
<feColorMatrix in="SourceAlpha" type="matrix" values="0 0 0 0 0 0 0 0 0 0 0 0 0 0 0 0 0 0 127 0" result="hardAlpha"/>
<feOffset dy="4"/>
<feGaussianBlur stdDeviation="2"/>
<feComposite in2="hardAlpha" operator="out"/>
<feColorMatrix type="matrix" values="0 0 0 0 0 0 0 0 0 0 0 0 0 0 0 0 0 0 0.2 0"/>
<feBlend mode="normal" in2="BackgroundImageFix" result="effect1_dropShadow_440_27430"/>
<feBlend mode="normal" in="SourceGraphic" in2="effect1_dropShadow_440_27430" result="shape"/>
</filter>
</defs>
</svg>
