<svg width="70" height="70" viewBox="0 0 70 70" fill="none" xmlns="http://www.w3.org/2000/svg">
<rect x="0.5" y="0.5" width="69" height="69" rx="15.5" fill="#141414" stroke="#141414"/>
<path d="M52.8836 26.4598C52.6723 25.7061 52.2605 25.0239 51.6922 24.4854C51.1079 23.9304 50.3917 23.5334 49.6112 23.3319C46.6902 22.5624 34.9878 22.5624 34.9878 22.5624C30.1092 22.5069 25.2318 22.7509 20.3831 23.2931C19.6026 23.5095 18.8877 23.9153 18.3021 24.4745C17.7266 25.028 17.3097 25.7104 17.092 26.4582C16.5689 29.2747 16.3148 32.1345 16.333 34.9991C16.3143 37.8611 16.5678 40.72 17.092 43.54C17.3051 44.2847 17.7204 44.9641 18.2974 45.5128C18.8744 46.0616 19.593 46.458 20.3831 46.6679C23.3429 47.4359 34.9878 47.4359 34.9878 47.4359C39.8726 47.4914 44.7563 47.2474 49.6112 46.7052C50.3917 46.5037 51.1079 46.1067 51.6922 45.5517C52.2677 45.0029 52.6768 44.3204 52.8821 43.5774C53.4188 40.7619 53.6798 37.9009 53.6613 35.0349C53.7017 32.1567 53.441 29.2822 52.8836 26.4582V26.4598ZM31.2674 40.322V29.6778L41.0039 35.0007L31.2674 40.322Z" fill="#FAE600"/>
</svg>
