<svg width="43" height="30" viewBox="0 0 43 30" fill="none" xmlns="http://www.w3.org/2000/svg">
<rect x="0.5" width="42.5" height="30" rx="4" fill="white"/>
<path d="M23.5 29L42.5 23.25V26C42.5 27.6569 41.1569 29 39.5 29H23.5Z" fill="#FD6020"/>
<path fill-rule="evenodd" clip-rule="evenodd" d="M37.2426 11.3887C38.5493 11.3887 39.2679 11.9931 39.2679 13.1348C39.3332 14.0079 38.7453 14.7466 37.9613 14.8809L39.7252 17.3658H38.3533L36.8507 14.9481H36.72V17.3658H35.6094V11.3887H37.2426ZM36.7188 14.1414H37.0454C37.764 14.1414 38.0907 13.8056 38.0907 13.2012C38.0907 12.6639 37.764 12.3281 37.0454 12.3281H36.7188V14.1414ZM31.7539 17.3658H34.8898V16.3584H32.8645V14.7466H34.8245V13.7392H32.8645V12.3961H34.8898V11.3887H31.7539V17.3658ZM28.4872 15.4182L26.9846 11.3887H25.8086L28.2258 17.5001H28.8138L31.2311 11.3887H30.0551L28.4872 15.4182ZM15.2266 14.4099C15.2266 16.0889 16.5332 17.4992 18.1665 17.4992C18.6891 17.4992 19.1464 17.3649 19.6037 17.1634V15.8202C19.2771 16.2232 18.8198 16.4918 18.2971 16.4918C17.2518 16.4918 16.4025 15.6859 16.4025 14.6114V14.4771C16.3372 13.4025 17.1865 12.4623 18.2318 12.3951C18.7544 12.3951 19.2771 12.6638 19.6037 13.0667V11.7236C19.2117 11.4549 18.6891 11.3878 18.2318 11.3878C16.5332 11.2535 15.2266 12.6638 15.2266 14.4099ZM13.2017 13.672C12.5484 13.4033 12.3524 13.269 12.3524 12.9332C12.4177 12.5303 12.7444 12.1945 13.1364 12.2616C13.463 12.2616 13.7897 12.4631 14.051 12.7317L14.639 11.9258C14.1817 11.5229 13.5937 11.2542 13.0057 11.2542C12.0911 11.1871 11.3071 11.9258 11.2418 12.8661V12.9332C11.2418 13.7391 11.5684 14.2092 12.6137 14.545C12.8751 14.6122 13.1364 14.7465 13.3977 14.8808C13.5937 15.0151 13.7244 15.2166 13.7244 15.4852C13.7244 15.9554 13.3324 16.3583 12.9404 16.3583H12.8751C12.3524 16.3583 11.8951 16.0225 11.6991 15.5524L10.9805 16.2911C11.3725 17.0299 12.1564 17.4328 12.9404 17.4328C13.9857 17.5 14.835 16.6941 14.9003 15.6196V15.4181C14.835 14.6122 14.5083 14.2092 13.2017 13.672ZM9.41016 17.3658H10.5208V11.3887H9.41016V17.3658ZM4.25 11.3886H5.88327H6.20993C7.77787 11.4558 9.01916 12.799 8.95382 14.4108C8.95382 15.2838 8.56184 16.0897 7.90853 16.6942C7.32055 17.1643 6.60191 17.4329 5.88327 17.3658H4.25V11.3886ZM5.68603 16.358C6.20868 16.4252 6.79666 16.2237 7.18864 15.8879C7.58063 15.4849 7.77662 14.9477 7.77662 14.3432C7.77662 13.806 7.58063 13.2687 7.18864 12.8658C6.79666 12.53 6.20868 12.3285 5.68603 12.3956H5.35938V16.358H5.68603Z" fill="black"/>
<path fill-rule="evenodd" clip-rule="evenodd" d="M22.9349 11.25C21.3016 11.25 19.9297 12.5932 19.9297 14.3393C19.9297 16.0183 21.2363 17.4286 22.9349 17.4958C24.6335 17.5629 25.9401 16.1526 26.0055 14.4065C25.9401 12.6603 24.6335 11.25 22.9349 11.25V11.25Z" fill="#FD6020"/>
</svg>
