<svg width="43" height="30" viewBox="0 0 43 30" fill="none" xmlns="http://www.w3.org/2000/svg">
<rect width="42.5" height="30" rx="4" fill="white"/>
<path d="M24.072 14.6323C24.072 19.2616 20.3622 23.0145 15.786 23.0145C11.2098 23.0145 7.5 19.2616 7.5 14.6323C7.5 10.0029 11.2098 6.25006 15.786 6.25006C20.3622 6.25006 24.072 10.0029 24.072 14.6323Z" fill="#ED0006"/>
<path d="M34.822 14.6323C34.822 19.2616 31.1122 23.0145 26.536 23.0145C21.9598 23.0145 18.25 19.2616 18.25 14.6323C18.25 10.0029 21.9598 6.25006 26.536 6.25006C31.1122 6.25006 34.822 10.0029 34.822 14.6323Z" fill="#2F80ED"/>
<path fill-rule="evenodd" clip-rule="evenodd" d="M21.161 21.0118C22.9424 19.4744 24.072 17.1868 24.072 14.6323C24.072 12.0778 22.9424 9.79016 21.161 8.25271C19.3796 9.79016 18.25 12.0778 18.25 14.6323C18.25 17.1868 19.3796 19.4744 21.161 21.0118Z" fill="#6C6BBD"/>
</svg>
