<svg width="43" height="30" viewBox="0 0 43 30" fill="none" xmlns="http://www.w3.org/2000/svg">
<rect x="0.5" width="42.5" height="30" rx="4" fill="white"/>
<path fill-rule="evenodd" clip-rule="evenodd" d="M21.9739 21.0363C20.4938 22.2839 18.5739 23.0371 16.4759 23.0371C11.7948 23.0371 8 19.2875 8 14.6621C8 10.0367 11.7948 6.28711 16.4759 6.28711C18.5739 6.28711 20.4938 7.0403 21.9739 8.28794C23.454 7.0403 25.374 6.28711 27.472 6.28711C32.153 6.28711 35.9478 10.0367 35.9478 14.6621C35.9478 19.2875 32.153 23.0371 27.472 23.0371C25.374 23.0371 23.454 22.2839 21.9739 21.0363Z" fill="#ED0006"/>
<path fill-rule="evenodd" clip-rule="evenodd" d="M21.9746 21.0363C23.7969 19.5001 24.9524 17.2145 24.9524 14.6621C24.9524 12.1098 23.7969 9.82407 21.9746 8.28795C23.4547 7.0403 25.3747 6.28711 27.4727 6.28711C32.1537 6.28711 35.9485 10.0367 35.9485 14.6621C35.9485 19.2875 32.1537 23.0371 27.4727 23.0371C25.3747 23.0371 23.4547 22.2839 21.9746 21.0363Z" fill="#F9A000"/>
<path fill-rule="evenodd" clip-rule="evenodd" d="M21.9739 21.0363C23.7962 19.5001 24.9517 17.2145 24.9517 14.6621C24.9517 12.1098 23.7962 9.82407 21.9739 8.28794C20.1516 9.82407 18.9961 12.1098 18.9961 14.6621C18.9961 17.2145 20.1516 19.5001 21.9739 21.0363Z" fill="#FD6020"/>
</svg>
