<svg width="19" height="23" viewBox="0 0 19 23" fill="none" xmlns="http://www.w3.org/2000/svg">
<path fill-rule="evenodd" clip-rule="evenodd" d="M5.50185 21.7479L5.87189 19.3327L5.04757 19.313H1.11133L3.84688 1.49026C3.8554 1.4363 3.88295 1.3862 3.92319 1.35056C3.96362 1.31492 4.01515 1.29536 4.06906 1.29536H10.7062C12.9098 1.29536 14.4304 1.76643 15.2241 2.69633C15.5964 3.13256 15.8334 3.58855 15.9482 4.09016C16.0685 4.61662 16.0705 5.24551 15.9531 6.01269L15.9446 6.06849V6.56012L16.3168 6.77682C16.6302 6.94768 16.8793 7.1432 17.0704 7.36702C17.3887 7.74012 17.5946 8.21423 17.6816 8.77613C17.7716 9.35411 17.7419 10.0421 17.5946 10.8209C17.4248 11.7165 17.1502 12.4968 16.7794 13.135C16.4385 13.7232 16.0041 14.2111 15.4881 14.5891C14.9956 14.9484 14.4105 15.2211 13.7489 15.3956C13.1078 15.5671 12.3768 15.6537 11.5751 15.6537H11.0586C10.6893 15.6537 10.3306 15.7903 10.0489 16.0353C9.76651 16.2854 9.57981 16.6271 9.52253 17.0008L9.48348 17.2184L8.82962 21.4754L8.80009 21.6316C8.79216 21.6811 8.77868 21.7058 8.75886 21.7225C8.74122 21.7377 8.71586 21.7479 8.69108 21.7479H5.50185Z" fill="#28356A"/>
<path fill-rule="evenodd" clip-rule="evenodd" d="M16.6718 6.12451C16.6522 6.25465 16.6294 6.38764 16.604 6.52429C15.7288 11.142 12.7342 12.7373 8.90971 12.7373H6.9624C6.49465 12.7373 6.10043 13.0861 6.02769 13.5603L4.74831 21.899C4.70094 22.2104 4.93442 22.4909 5.24004 22.4909H8.69387C9.10276 22.4909 9.45021 22.1856 9.51462 21.7711L9.54851 21.5909L10.1988 17.3505L10.2406 17.118C10.3042 16.7021 10.6525 16.3966 11.0614 16.3966H11.5779C14.9241 16.3966 17.5437 15.0007 18.3093 10.961C18.629 9.27347 18.4635 7.86436 17.6172 6.87336C17.3612 6.5746 17.0434 6.32654 16.6718 6.12451Z" fill="#2F80ED"/>
<path fill-rule="evenodd" clip-rule="evenodd" d="M15.754 5.74907C15.6202 5.70895 15.4823 5.6727 15.3408 5.63991C15.1985 5.60793 15.0528 5.57962 14.9028 5.55478C14.3777 5.46761 13.8023 5.42627 13.1861 5.42627H7.984C7.85576 5.42627 7.73407 5.456 7.62526 5.50977C7.38524 5.6283 7.20706 5.86169 7.16385 6.14742L6.0571 13.35L6.02539 13.56C6.09813 13.0858 6.49235 12.737 6.9601 12.737H8.90741C12.7319 12.737 15.7265 11.1409 16.6017 6.52398C16.6279 6.38733 16.6499 6.25434 16.6695 6.1242C16.4481 6.00344 16.2083 5.90018 15.95 5.8122C15.8862 5.79041 15.8204 5.76943 15.754 5.74907Z" fill="#28356A"/>
<path fill-rule="evenodd" clip-rule="evenodd" d="M7.16407 6.14852C7.20728 5.86279 7.38546 5.62939 7.62548 5.51168C7.73509 5.45771 7.85599 5.42798 7.98422 5.42798H13.1864C13.8026 5.42798 14.3779 5.46952 14.903 5.55669C15.053 5.58133 15.1987 5.60984 15.341 5.64182C15.4825 5.6744 15.6205 5.71086 15.7542 5.75077C15.8206 5.77114 15.8864 5.79232 15.9509 5.8133C16.2091 5.90128 16.4491 6.00535 16.6705 6.1253C16.931 4.41885 16.6683 3.25699 15.7705 2.20489C14.7805 1.04648 12.9939 0.550781 10.7077 0.550781H4.07038C3.60342 0.550781 3.20504 0.899647 3.13289 1.37458L0.368403 19.3806C0.313898 19.7368 0.581269 20.0581 0.930894 20.0581H5.02847L7.16407 6.14852Z" fill="#28356A"/>
</svg>
