<svg width="24" height="27" viewBox="0 0 24 27" fill="none" xmlns="http://www.w3.org/2000/svg">
<path d="M22.7301 5.5047C18.5194 4.96436 14.4424 1.78987 12.7714 0.30394C12.3036 -0.101313 11.5684 -0.101313 11.1005 0.30394C9.42962 1.78987 5.35258 4.96436 1.14188 5.5047C0.47351 5.57224 -0.061184 6.18012 0.00565265 6.85555C0.540346 19.8237 8.96176 25.4972 11.3679 26.848C11.7689 27.0507 12.2368 27.0507 12.6378 26.848C15.0439 25.4972 23.4653 19.8237 24 6.85555C23.8663 6.11258 23.3985 5.57224 22.7301 5.5047ZM11.9026 20.4315C8.22656 20.4315 5.21891 17.3921 5.21891 13.6773C5.21891 9.96247 8.22656 6.92307 11.9026 6.92307C15.5786 6.92307 18.5862 9.96247 18.5862 13.6773C18.5862 17.3921 15.5786 20.4315 11.9026 20.4315Z" fill="#8F8F8F"/>
<path d="M15.5768 12.3247H14.7748V11.6493C14.7748 10.0958 13.5049 8.8125 11.9677 8.8125C10.4304 8.8125 9.16052 10.0958 9.16052 11.6493V12.3247H8.22481C8.0243 12.3247 7.89062 12.4598 7.89062 12.6624V17.3904C7.89062 17.593 8.0243 17.7281 8.22481 17.7281H15.5768C15.7773 17.7281 15.911 17.593 15.911 17.3904V12.6624C15.911 12.4598 15.7773 12.3247 15.5768 12.3247ZM13.037 12.3247H10.6978V11.6493C10.6978 10.9738 11.2325 10.4335 11.9008 10.4335C12.5692 10.4335 13.1039 10.9738 13.1039 11.6493V12.3247H13.037Z" fill="#8F8F8F"/>
</svg>
