<svg width="24" height="24" viewBox="0 0 24 24" fill="none" xmlns="http://www.w3.org/2000/svg">
<path fill-rule="evenodd" clip-rule="evenodd" d="M12 24C5.42857 24 0 18.5714 0 12C0 5.42857 5.41935 0 11.9908 0C18.5622 0 24 5.42857 24 12C24 18.5714 18.5714 24 12 24ZM10.5259 18.0276C10.8669 18.0276 11.1618 17.871 11.383 17.53L17.5766 7.82488C17.7148 7.62212 17.8346 7.37327 17.8346 7.15207C17.8346 6.66359 17.4015 6.35945 16.9499 6.35945C16.6826 6.35945 16.4153 6.51613 16.2125 6.82949L10.4798 15.9447L7.42911 12.1198C7.18948 11.8157 6.94063 11.7051 6.6457 11.7051C6.19409 11.7051 5.81621 12.0645 5.81621 12.553C5.81621 12.7834 5.90838 13.0323 6.06506 13.2258L9.62266 17.5392C9.90838 17.8894 10.1849 18.0276 10.5259 18.0276Z" fill="#8F8F8F"/>
</svg>
