<svg width="43" height="30" viewBox="0 0 43 30" fill="none" xmlns="http://www.w3.org/2000/svg">
<rect width="42.5" height="30" rx="4" fill="white"/>
<path fill-rule="evenodd" clip-rule="evenodd" d="M13.4378 19.8228H10.8631L8.93244 12.2404C8.84081 11.8916 8.64623 11.5833 8.36002 11.4379C7.64573 11.0727 6.85864 10.7821 6 10.6355V10.3436H10.1476C10.72 10.3436 11.1494 10.7821 11.2209 11.2914L12.2227 16.7607L14.7961 10.3436H17.2992L13.4378 19.8228ZM18.7284 19.8229H16.2969L18.2991 10.3437H20.7307L18.7284 19.8229ZM23.8799 12.9696C23.9514 12.4591 24.3807 12.1672 24.8816 12.1672C25.6687 12.0939 26.5261 12.2405 27.2416 12.6044L27.6709 10.5635C26.9554 10.2716 26.1683 10.125 25.454 10.125C23.094 10.125 21.3767 11.438 21.3767 13.2603C21.3767 14.6466 22.5931 15.3745 23.4518 15.813C24.3807 16.2503 24.7385 16.5422 24.6669 16.9794C24.6669 17.6353 23.9514 17.9272 23.2371 17.9272C22.3785 17.9272 21.5198 17.7086 20.734 17.3434L20.3047 19.3856C21.1633 19.7495 22.0923 19.8961 22.9509 19.8961C25.5971 19.9681 27.2416 18.6564 27.2416 16.6875C27.2416 14.2081 23.8799 14.0627 23.8799 12.9696ZM35.7494 19.8229L33.8187 10.3437H31.7449C31.3156 10.3437 30.8863 10.6357 30.7431 11.0729L27.168 19.8229H29.6711L30.1707 18.4379H33.2463L33.5325 19.8229H35.7494ZM32.1044 12.8965L32.8187 16.469H30.8164L32.1044 12.8965Z" fill="#28356A"/>
</svg>
